:SAMPLES-PER-SECOND 30
:FULLY-SPECIFIED
:DEGREES
457
root  1.89264 32.0387 3.73976 0.600037 -65.2647 -0.722565
RightUpLeg  3.8742 -15.0777 7.31125
RightLeg  32.8307 -8.18053 -4.54631
RightFoot  -9.02718 0.0838894 1.44032
RightToes  -38.6875 -0.208085 -0.307589
Spine  3.18204 1.78632 -7.17668
Spine1  5.51192 4.5691 -14.9451
HEad  7.32682 -22.7549 26.0623
LeftShoulder1  0 -2.42657e-020 -4.95415e-022
LeftArm  -72.4183 25.7764 -73.0982
LeftForeArm  54.4195 -9.29633 -1.62142
LeftHand  -0.00463804 -2.83982 -0.183298
RightShoulder  0 2.42657e-020 1.07489e-018
RightArm  -37.6594 -15.2652 88.2222
RightForeArm  52.7576 19.8628 3.617
RightHand  -1.27871 24.5405 -5.50582
LeftUpLeg  -25.3042 6.55736 -4.8317
LeftLeg  38.2096 5.08677 3.48577
LeftFoot  -6.8452 -0.0393528 -0.658562
LeftToes  7.33193 1.28829e-006 1.15665e-007
458
root  2.55571 31.9179 3.66182 -0.799652 -67.6753 1.23669
RightUpLeg  5.1011 -11.3201 7.90385
RightLeg  27.7902 -11.7056 -5.18946
RightFoot  -13.4663 0.303475 2.9478
RightToes  -27.5031 -0.12711 -0.234243
Spine  3.39277 2.4174 -7.07927
Spine1  5.72966 5.95286 -14.9137
HEad  6.49145 -21.7603 25.7296
LeftShoulder1  0 -2.42657e-020 -4.95415e-022
LeftArm  -73.8386 26.9046 -73.7774
LeftForeArm  52.8587 -9.58763 -1.67687
LeftHand  -0.002595 -2.69765 -0.260401
RightShoulder  0 2.42657e-020 1.07489e-018
RightArm  -36.4644 -12.9796 87.9689
RightForeArm  53.1175 19.9263 3.62899
RightHand  -1.18658 24.7259 -5.04095
LeftUpLeg  -26.8111 8.03239 -5.90894
LeftLeg  38.4269 5.76577 3.98093
LeftFoot  -6.11637 -0.0351943 -0.658747
LeftToes  7.18884 1.28829e-006 1.15665e-007
459
root  3.26338 31.7974 3.53615 -1.01593 -69.9768 1.59943
RightUpLeg  5.07107 -7.79028 8.64262
RightLeg  25.6499 -13.4261 -5.34982
RightFoot  -16.9814 0.569144 4.1888
RightToes  -17.3221 -0.0670389 -0.15495
Spine  3.80955 2.90179 -6.65053
Spine1  6.36226 7.06717 -14.2157
HEad  5.40392 -20.4822 25.1246
LeftShoulder1  0 -2.42657e-020 -4.95415e-022
LeftArm  -75.9965 26.8853 -74.8213
LeftForeArm  54.5283 -9.21831 -1.60716
LeftHand  -0.00488694 -2.8629 -0.174824
RightShoulder  0 2.42657e-020 1.07489e-018
RightArm  -34.1474 -9.96141 87.519
RightForeArm  54.1781 19.5894 3.55981
RightHand  -1.2079 24.8673 -5.10577
LeftUpLeg  -28.4053 9.41174 -6.254
LeftLeg  39.0018 6.45237 4.54754
LeftFoot  -5.47835 -0.0316383 -0.66128
LeftToes  7.61724 1.28829e-006 1.15665e-007
460
root  3.9734 31.7307 3.39135 -0.326263 -70.957 0.742554
RightUpLeg  4.6513 -7.25271 8.75294
RightLeg  24.5026 -12.7087 -4.78112
RightFoot  -18.7066 0.646568 4.30167
RightToes  -13.7795 -0.0495626 -0.125025
Spine  4.47852 2.96134 -5.96779
Spine1  7.59789 7.33919 -12.9985
HEad  4.06998 -19.1977 24.685
LeftShoulder1  0 -2.42657e-020 -4.95415e-022
LeftArm  -76.9867 25.8337 -76.2127
LeftForeArm  56.5887 -8.82641 -1.53264
LeftHand  -0.0155139 -2.84257 0.255939
RightShoulder  0 2.42657e-020 1.07489e-018
RightArm  -32.0259 -6.92983 87.2035
RightForeArm  55.5143 19.6087 3.56096
RightHand  -1.23943 25.0826 -5.19879
LeftUpLeg  -29.4605 9.97474 -6.24888
LeftLeg  38.8512 6.82113 4.77875
LeftFoot  -4.50323 -0.0216691 -0.551125
LeftToes  8.16607 1.28829e-006 1.15665e-007
461
root  4.66626 31.7662 3.20395 1.60446 -70.8004 -1.6485
RightUpLeg  3.96948 -8.08114 9.34157
RightLeg  24.0277 -12.18 -4.47259
RightFoot  -18.6414 0.608625 4.08471
RightToes  -12.7951 -0.0450375 -0.116523
Spine  5.36224 2.80586 -5.11496
Spine1  9.34178 7.14148 -11.4039
HEad  2.48904 -18.3261 24.6496
LeftShoulder1  0 -2.42657e-020 -4.95415e-022
LeftArm  -76.134 23.575 -77.5401
LeftForeArm  58.197 -8.69791 -1.50627
LeftHand  -0.0257217 -2.83935 0.669544
RightShoulder  0 2.42657e-020 1.07489e-018
RightArm  -30.9317 -4.28016 87.2874
RightForeArm  56.0854 19.9808 3.63392
RightHand  -1.34322 25.202 -5.63488
LeftUpLeg  -29.9808 10.4462 -5.79435
LeftLeg  37.929 6.46006 4.37525
LeftFoot  -2.86749 -0.00691144 -0.276148
LeftToes  8.04545 1.28829e-006 1.15665e-007
462
root  5.35511 31.8483 3.00258 3.84836 -70.0035 -4.17438
RightUpLeg  2.52147 -8.90523 10.2725
RightLeg  24.5261 -12.2946 -4.6344
RightFoot  -18.0057 0.575688 4.01011
RightToes  -11.7453 -0.0433296 -0.107372
Spine  6.17645 2.58706 -4.26648
Spine1  11.0212 6.72898 -9.79007
HEad  0.950084 -17.997 24.7385
LeftShoulder1  0 -2.42657e-020 -4.95415e-022
LeftArm  -73.2912 21.1298 -79.3179
LeftForeArm  58.2689 -12.1799 -2.13825
LeftHand  -0.0209834 -3.06818 0.414476
RightShoulder  0 2.42657e-020 1.07489e-018
RightArm  -30.4485 -2.14866 87.6909
RightForeArm  55.7903 20.4307 3.72468
RightHand  -1.415 25.2257 -5.94904
LeftUpLeg  -30.3639 10.6349 -5.30701
LeftLeg  36.3026 5.72352 3.64757
LeftFoot  -0.976931 6.55161e-005 0.00767562
LeftToes  8.27413 1.28829e-006 1.15665e-007
463
root  6.02426 31.9042 2.83875 5.58438 -68.5217 -5.8107
RightUpLeg  0.914805 -10.3447 10.9013
RightLeg  24.7735 -12.1148 -4.62738
RightFoot  -17.3773 0.52766 3.82953
RightToes  -12.0023 -0.0425807 -0.105729
Spine  6.76568 2.24876 -3.50817
Spine1  12.2961 6.04741 -8.39201
HEad  -0.276679 -18.0136 24.6222
LeftShoulder1  0 -2.42657e-020 -4.95415e-022
LeftArm  -67.3354 18.9113 -80.6939
LeftForeArm  55.757 -16.3027 -2.91538
LeftHand  -0.00276857 -3.56996 -0.281648
RightShoulder  0 2.42657e-020 1.07489e-018
RightArm  -29.0338 -0.975249 88.1081
RightForeArm  54.1452 21.3127 3.90633
RightHand  -1.3457 24.9965 -5.69693
LeftUpLeg  -30.9045 10.3391 -5.26957
LeftLeg  34.3516 4.88861 2.88883
LeftFoot  1.06133 -0.0023122 0.249633
LeftToes  8.75712 1.28829e-006 1.15665e-007
